<svg width="116" height="14" viewBox="0 0 116 14" fill="none" xmlns="http://www.w3.org/2000/svg">
<path d="M13.252 13.263H10.377L9.234 10.459H3.947L2.804 13.263H0L5.358 0.67099H7.894L13.252 13.263ZM8.252 8.02999L6.591 3.97599L4.929 8.02999H8.252ZM29.839 5.11899C29.839 5.84499 29.708 6.48199 29.446 7.02899C29.1948 7.56351 28.8255 8.03402 28.366 8.40499C27.907 8.77499 27.371 9.05099 26.758 9.23499C26.1171 9.42356 25.452 9.51689 24.784 9.51199H22.694V13.263H19.944V0.76099H25.052C25.802 0.76099 26.472 0.86499 27.062 1.07299C27.651 1.28199 28.152 1.57599 28.562 1.95699C28.972 2.33799 29.288 2.79399 29.508 3.32399C29.728 3.85399 29.838 4.43999 29.838 5.08299L29.839 5.11899ZM27.053 5.17199V5.13699C27.053 4.51699 26.853 4.04699 26.454 3.72599C26.055 3.40399 25.511 3.24299 24.82 3.24299H22.695V7.06499H24.874C25.564 7.06499 26.1 6.88399 26.481 6.52099C26.862 6.15799 27.053 5.70799 27.053 5.17199ZM46.533 5.11899C46.533 5.84499 46.401 6.48199 46.14 7.02899C45.8885 7.56362 45.5189 8.03413 45.059 8.40499C44.601 8.77499 44.065 9.05099 43.452 9.23499C42.8111 9.42356 42.146 9.51689 41.478 9.51199H39.388V13.263H36.638V0.76099H41.746C42.496 0.76099 43.166 0.86499 43.756 1.07299C44.345 1.28199 44.845 1.57599 45.256 1.95699C45.666 2.33799 45.982 2.79399 46.202 3.32399C46.422 3.85399 46.532 4.43999 46.532 5.08299L46.533 5.11899ZM43.746 5.17199V5.13699C43.746 4.51699 43.546 4.04699 43.148 3.72599C42.749 3.40399 42.204 3.24299 41.514 3.24299H39.388V7.06499H41.568C42.258 7.06499 42.794 6.88399 43.175 6.52099C43.555 6.15799 43.746 5.70799 43.746 5.17199ZM65.512 13.263H62.637L61.494 10.459H56.207L55.064 13.263H52.26L57.618 0.67099H60.154L65.512 13.263ZM60.512 8.02999L58.85 3.97599L57.19 8.02999H60.512ZM83.009 13.263H79.795L77.115 9.26299H74.955V13.263H72.204V0.76099H77.919C79.408 0.76099 80.566 1.12399 81.393 1.85099C82.221 2.57699 82.634 3.58899 82.634 4.88699V4.92199C82.634 5.93399 82.387 6.75899 81.894 7.39599C81.3935 8.03756 80.7211 8.52376 79.955 8.79799L83.009 13.263ZM79.849 5.06499V5.02899C79.849 4.43399 79.658 3.98799 79.277 3.68899C78.896 3.39199 78.366 3.24299 77.687 3.24299H74.954V6.83299H77.741C78.419 6.83299 78.941 6.67299 79.303 6.35099C79.667 6.02999 79.849 5.60099 79.849 5.06499ZM99.399 13.263H89.879V0.76099H99.31V3.20799H92.612V5.74399H98.506V8.19099H92.612V10.816H99.399V13.263ZM115.593 13.263H106.609V0.76099H109.359V10.763H115.593V13.263Z" fill="#423A3A"/>
</svg>
