<svg width="63" height="14" viewBox="0 0 63 14" fill="none" xmlns="http://www.w3.org/2000/svg">
<path d="M10.699 9.439C10.699 10.01 10.589 10.51 10.369 10.939C10.148 11.367 9.83202 11.725 9.42202 12.01C9.01102 12.296 8.51702 12.51 7.93902 12.653C7.31006 12.802 6.66536 12.8742 6.01902 12.868H0.0720215V0.365H5.87602C7.16202 0.365 8.17102 0.657 8.90402 1.24C9.63602 1.824 10.002 2.61 10.002 3.598V3.634C10.002 3.991 9.95702 4.307 9.86802 4.58C9.70746 5.09465 9.40401 5.5531 8.99302 5.902C8.79806 6.06781 8.58545 6.21168 8.35902 6.331C9.08502 6.605 9.65702 6.977 10.073 7.447C10.49 7.917 10.699 8.569 10.699 9.403V9.439ZM7.26902 4.099V4.062C7.26902 3.646 7.11502 3.327 6.80502 3.107C6.49502 2.887 6.04902 2.777 5.46502 2.777H2.75102V5.419H5.28702C5.89402 5.419 6.37702 5.315 6.73402 5.106C7.09102 4.898 7.26902 4.562 7.26902 4.097V4.099ZM7.96602 9.099V9.063C7.96602 8.647 7.80602 8.316 7.48402 8.073C7.16202 7.828 6.64402 7.706 5.93002 7.706H2.75002V10.456H6.02002C6.62602 10.456 7.10302 10.346 7.44802 10.126C7.79302 9.906 7.96602 9.563 7.96602 9.099ZM29.911 12.868H27.035L25.892 10.064H20.605L19.462 12.868H16.658L22.016 0.276H24.552L29.911 12.868ZM24.91 7.635L23.249 3.579L21.588 7.634L24.91 7.635ZM45.64 9.171C45.64 9.79 45.527 10.341 45.3 10.823C45.0818 11.2948 44.7582 11.7101 44.354 12.037C43.9242 12.3774 43.433 12.6321 42.907 12.787C42.3042 12.9662 41.6779 13.0538 41.049 13.047C40.093 13.0461 39.1443 12.8797 38.245 12.555C37.3199 12.2222 36.4701 11.7089 35.745 11.045L37.37 9.099C37.9071 9.54154 38.4986 9.91356 39.13 10.206C39.73 10.48 40.389 10.617 41.103 10.617C41.675 10.617 42.118 10.513 42.433 10.305C42.5815 10.2151 42.7035 10.0876 42.7867 9.93531C42.87 9.78305 42.9115 9.61148 42.907 9.438V9.403C42.907 9.224 42.874 9.066 42.809 8.929C42.743 8.792 42.619 8.664 42.434 8.545C42.1916 8.39867 41.9341 8.27897 41.666 8.188C41.2469 8.04175 40.8207 7.91659 40.389 7.813C39.8079 7.6734 39.2353 7.50045 38.674 7.295C38.2057 7.1285 37.7658 6.8907 37.37 6.59C37.0146 6.31218 36.7302 5.95405 36.54 5.545C36.343 5.128 36.245 4.61 36.245 3.991V3.955C36.245 3.384 36.352 2.869 36.567 2.41C36.781 1.952 37.081 1.556 37.468 1.223C37.8748 0.878568 38.3454 0.617604 38.853 0.455C39.4237 0.271036 40.0204 0.180536 40.62 0.187C41.537 0.187 42.38 0.324 43.147 0.597C43.9133 0.870068 44.6288 1.26886 45.264 1.777L43.834 3.848C43.3193 3.49138 42.7691 3.1891 42.192 2.946C41.6829 2.73131 41.1365 2.61917 40.584 2.616C40.048 2.616 39.646 2.72 39.379 2.928C39.111 3.137 38.977 3.396 38.977 3.705V3.741C38.977 3.943 39.015 4.119 39.093 4.268C39.17 4.417 39.31 4.551 39.513 4.67C39.715 4.789 39.992 4.902 40.343 5.009C40.694 5.116 41.138 5.241 41.673 5.384C42.305 5.551 42.867 5.738 43.361 5.947C43.856 6.155 44.272 6.405 44.611 6.697C44.951 6.989 45.207 7.331 45.38 7.724C45.552 8.117 45.639 8.587 45.639 9.134L45.64 9.171ZM62.4 12.502H52.88V0H62.31V2.447H55.612V4.983H61.506V7.429H55.612V10.054H62.399V12.501L62.4 12.502Z" fill="#423A3A"/>
</svg>
